<svg width="258" height="125" viewBox="0 0 258 125" fill="none" xmlns="http://www.w3.org/2000/svg">
<path d="M61.7 52.3C61.7 56.5 60.4333 60.4 57.9 64C55.4333 67.6 52.2 70.2667 48.2 72L64.5 100.1L51.4 100L36.6 73.7H20.6V100H9.8V30H39.6C43.2667 30 46.7667 30.9 50.1 32.7C53.5 34.5 56.2667 37.0667 58.4 40.4C60.6 43.7333 61.7 47.7 61.7 52.3ZM37.8 40.4H20.6V63.3H40.6C43.8 63.3 46.2667 62.1667 48 59.9C49.8 57.6333 50.7 55.0667 50.7 52.2C50.7 48.5333 49.4333 45.6667 46.9 43.6C44.3667 41.4667 41.3333 40.4 37.8 40.4ZM83.6313 36.1C81.2979 36.1 79.5646 35.5 78.4313 34.3C77.2979 33.1 76.7313 31.5333 76.7313 29.6C76.7313 27.9333 77.2979 26.4333 78.4313 25.1C79.5646 23.7667 81.2979 23.1 83.6313 23.1C85.9646 23.1 87.6979 23.7 88.8313 24.9C89.9646 26.1 90.5313 27.6667 90.5313 29.6C90.5313 31.2667 89.9646 32.7667 88.8313 34.1C87.6979 35.4333 85.9646 36.1 83.6313 36.1ZM88.9313 100H78.6313V47.5H88.9313V100ZM133.063 57.9H120.663V100H110.263V57.9H101.863V48.4H110.263V41.6C110.263 37.0667 111.697 33.3667 114.563 30.5C117.497 27.5667 121.263 26.1 125.863 26.1C128.53 26.1 130.73 26.6 132.463 27.6C134.263 28.6 135.563 29.5667 136.363 30.5L132.863 38.4C132.197 37.7333 131.33 37.1333 130.263 36.6C129.197 36 128.13 35.7 127.063 35.7C124.663 35.7 122.997 36.2667 122.063 37.4C121.13 38.5333 120.663 39.9333 120.663 41.6V48.4H133.063V57.9ZM160.914 100H150.614V57.5H139.714V47.5H150.614V34.1H160.914V47.5H173.114V57.5H160.914V100ZM209.993 46.4C214.726 46.4 218.393 47.3667 220.993 49.3C223.593 51.2333 225.393 53.8333 226.393 57.1C227.46 60.3667 227.993 64 227.993 68V100H217.693V68.7C217.693 66.1667 217.36 63.9 216.693 61.9C216.026 59.9 214.893 58.3333 213.293 57.2C211.693 56.0667 209.46 55.6 206.593 55.8C203.926 55.8 201.56 56.3667 199.493 57.5C197.426 58.6333 195.793 60.1333 194.593 62C193.393 63.8667 192.793 65.9333 192.793 68.2V100H182.493V26H192.793V55.8C194.393 53.3333 196.726 51.1667 199.793 49.3C202.86 47.3667 206.26 46.4 209.993 46.4Z" fill="#E3FFC2"/>
<circle cx="246.5" cy="21.5" r="11.5" fill="#9CCD62"/>
<path d="M0 114.5H235" stroke="#9CCD62" stroke-width="5"/>
</svg>
